<?xml version="1.0" encoding="utf-8"?>
<!-- Generator: Adobe Illustrator 23.0.3, SVG Export Plug-In . SVG Version: 6.00 Build 0)  -->
<svg version="1.1" id="Capa_1" xmlns="http://www.w3.org/2000/svg" xmlns:xlink="http://www.w3.org/1999/xlink" x="0px" y="0px"
	 viewBox="0 0 350 350" style="enable-background:new 0 0 350 350;" xml:space="preserve">
<style type="text/css">
	.st0{fill:#003856;}
	.st1{opacity:0.1;}
	.st2{fill:#FFFF00;stroke:#000000;stroke-miterlimit:10;}
</style>
<g>
	<path class="st0" d="M175,171.2c38.9,0,70.5-38.3,70.5-85.6S235.1,0,175,0s-70.5,38.3-70.5,85.6S136.1,171.2,175,171.2z"/>
	<path class="st0" d="M41.9,301.9C41.9,299,41.9,301,41.9,301.9L41.9,301.9z"/>
	<path class="st0" d="M308.1,304.1C308.1,303.3,308.1,298.6,308.1,304.1L308.1,304.1z"/>
	<path class="st0" d="M307.9,298.4c-1.3-82.3-12.1-105.8-94.4-120.7c0,0-11.6,14.8-38.6,14.8s-38.6-14.8-38.6-14.8
		c-81.4,14.7-92.8,37.8-94.3,118c-0.1,6.5-0.2,6.9-0.2,6.1c0,1.4,0,4.1,0,8.7c0,0,19.6,39.5,133.1,39.5S308,310.5,308,310.5
		c0-3,0-5,0-6.4C308.1,304.6,308,303.7,307.9,298.4z"/>
</g>
<g class="st1">
	<g>
		<path d="M245.4,85.6c0,47.3-31.6,85.6-70.5,85.6V0C235,0,245.4,38.3,245.4,85.6z"/>
		<path d="M41.8,301.9C41.8,299,41.8,301,41.8,301.9L41.8,301.9z"/>
		<path d="M308,304.1C308,303.3,308,298.6,308,304.1L308,304.1z"/>
		<path d="M307.9,304.1v6.4c0,0-19.6,39.5-133.1,39.5V192.5c27,0,38.6-14.8,38.6-14.8c82.3,14.9,93.1,38.4,94.4,120.7
			C307.9,303.7,308,304.6,307.9,304.1z"/>
	</g>
	<line x1="174.9" y1="171.2" x2="174.9" y2="0"/>
	<line x1="174.8" y1="350" x2="174.8" y2="192.5"/>
</g>
<g>
	<polygon class="st2" points="175,128 209.3,197.4 285.9,208.6 230.4,262.6 243.5,338.9 175,302.9 106.5,338.9 119.6,262.6 
		64.1,208.6 140.7,197.4 	"/>
	<g class="st1">
		<polygon points="230.5,262.6 243.5,338.9 175,302.9 175,128 209.3,197.4 285.9,208.6 		"/>
		<line x1="175" y1="302.9" x2="175" y2="128"/>
	</g>
</g>
</svg>
