<svg xmlns="http://www.w3.org/2000/svg" viewBox="0 0 99.83 168.7"><defs><style>.cls-1{fill:#87be25;}.cls-2{fill:#79ab21;}.cls-3{fill:#191919;}</style></defs><title>point</title><g id="Layer_2" data-name="Layer 2"><g id="Layer_1-2" data-name="Layer 1"><path class="cls-1" d="M31.22,49.3c-.1,10.1,8,18,18.4,18.1h.3V168.6h-.1c-2.8-.1-1.9-2.9-2.2-4.6-4.7-26.9-12.6-52.4-29.7-74.3C12,82.2,6.52,74.2,3,65.1A42,42,0,0,1,0,48.6C.72,28.7,10,14,27.92,5.5a53.12,53.12,0,0,1,22-5.4V31.5h-.1C39.32,31.5,31.32,39.2,31.22,49.3Z"/><path class="cls-2" d="M98.62,59.1c-2.4,11.6-9.3,21.2-16.4,30.3-17.3,22.1-25.4,47.7-30,74.8-.3,1.7.6,4.5-2.2,4.5V67.5c10.6,0,18.7-8,18.6-18.2s-8.2-17.8-18.7-17.8V0C61-.1,71.82,3.8,81.72,11.7,97,23.7,102.52,40.1,98.62,59.1Z"/><path d="M68.52,49.2c.1,10.3-8,18.2-18.6,18.2v-36C60.42,31.5,68.42,39.1,68.52,49.2Z"/><path class="cls-3" d="M49.92,31.5v36h-.3c-10.4-.1-18.5-8-18.4-18.1s8.1-17.9,18.7-17.9Z"/></g></g></svg>