<?xml version="1.0" encoding="utf-8"?>
<!-- Generator: Adobe Illustrator 23.0.3, SVG Export Plug-In . SVG Version: 6.00 Build 0)  -->
<svg version="1.1" id="Layer_1" xmlns="http://www.w3.org/2000/svg" xmlns:xlink="http://www.w3.org/1999/xlink" x="0px" y="0px"
	 viewBox="0 0 99.8 174.5" style="enable-background:new 0 0 99.8 174.5;" xml:space="preserve">
<style type="text/css">
	.st0{fill:#87BE25;}
	.st1{fill:#79AB21;}
	.st2{fill:#191919;}
	.st3{fill:none;}
	.st4{fill:#FFDA44;}
	.st5{fill:#FFCD00;}
	.st6{fill:#2488FF;}
</style>
<g>
	<path class="st0" d="M31.2,52.2c-0.1,10.1,8,18,18.4,18.1h0.3v101.2h-0.1c-2.8-0.1-1.9-2.9-2.2-4.6c-4.7-26.9-12.6-52.4-29.7-74.3
		C12,85.1,6.5,77.1,3,68c-2-5.3-3.2-10.7-3-16.5C0.7,31.6,10,16.9,27.9,8.4c7.4-3.5,14.8-5.3,22-5.4v31.4h-0.1
		C39.3,34.4,31.3,42.1,31.2,52.2z"/>
	<path class="st1" d="M98.6,62c-2.4,11.6-9.3,21.2-16.4,30.3c-17.3,22.1-25.4,47.7-30,74.8c-0.3,1.7,0.6,4.5-2.2,4.5V70.4
		c10.6,0,18.7-8,18.6-18.2C68.4,42,60.4,34.4,49.9,34.4V2.9C61,2.8,71.8,6.7,81.7,14.6C97,26.6,102.5,43,98.6,62z"/>
	<path d="M68.5,52.1c0.1,10.3-8,18.2-18.6,18.2v-36C60.4,34.4,68.4,42,68.5,52.1z"/>
	<path class="st2" d="M49.9,34.4v36h-0.3c-10.4-0.1-18.5-8-18.4-18.1C31.3,42.1,39.3,34.4,49.9,34.4L49.9,34.4z"/>
</g>
<line class="st3" x1="59" y1="-73.6" x2="59" y2="-73.6"/>
<path class="st4" d="M65.7,126.7l-14.3-14.3l6.5-6.5l7.8,7.8l2.8-2.8V81.8c-17,0-30.8,13.8-30.8,30.8c0,4.8,1.1,9.4,3.1,13.5
	c5,10.2,15.5,17.3,27.7,17.3v-19.5L65.7,126.7z"/>
<path class="st5" d="M70.4,81.9c-0.6,0-1.3-0.1-1.9-0.1v29.1l9.2-9.2l6.5,6.5l-15.6,15.6v19.5c17,0,30.8-13.8,30.8-30.8
	C99.3,96.3,86.5,82.9,70.4,81.9z"/>
<polygon class="st6" points="57.9,105.9 51.4,112.4 65.7,126.7 68.5,123.9 84.2,108.2 77.7,101.7 68.5,110.9 65.7,113.7 "/>
</svg>
